<mxfile host="app.diagrams.net" agent="Mozilla/5.0 (Windows NT 10.0; Win64; x64) AppleWebKit/537.36 (KHTML, like Gecko) Chrome/134.0.0.0 Safari/537.36" version="26.0.16">
  <diagram name="PÃ¡gina-1" id="shoFTjJNK3HkVdGetXmt">
    <mxGraphModel dx="1442" dy="786" grid="1" gridSize="10" guides="1" tooltips="1" connect="1" arrows="1" fold="1" page="1" pageScale="1" pageWidth="827" pageHeight="1169" math="0" shadow="0">
      <root>
        <mxCell id="0" />
        <mxCell id="1" parent="0" />
        <mxCell id="ndru6-qMAjkR5ZIpshtx-1" value="Importar datos" style="swimlane;fontStyle=1;align=center;verticalAlign=top;childLayout=stackLayout;horizontal=1;startSize=26;horizontalStack=0;resizeParent=1;resizeParentMax=0;resizeLast=0;collapsible=1;marginBottom=0;whiteSpace=wrap;html=1;" vertex="1" parent="1">
          <mxGeometry x="190" y="1090" width="160" height="104" as="geometry" />
        </mxCell>
        <mxCell id="ndru6-qMAjkR5ZIpshtx-2" value="- rendimiento&lt;div&gt;- satisfaccion&lt;/div&gt;&lt;div&gt;&lt;br&gt;&lt;/div&gt;" style="text;strokeColor=none;fillColor=none;align=left;verticalAlign=top;spacingLeft=4;spacingRight=4;overflow=hidden;rotatable=0;points=[[0,0.5],[1,0.5]];portConstraint=eastwest;whiteSpace=wrap;html=1;" vertex="1" parent="ndru6-qMAjkR5ZIpshtx-1">
          <mxGeometry y="26" width="160" height="44" as="geometry" />
        </mxCell>
        <mxCell id="ndru6-qMAjkR5ZIpshtx-3" value="" style="line;strokeWidth=1;fillColor=none;align=left;verticalAlign=middle;spacingTop=-1;spacingLeft=3;spacingRight=3;rotatable=0;labelPosition=right;points=[];portConstraint=eastwest;strokeColor=inherit;" vertex="1" parent="ndru6-qMAjkR5ZIpshtx-1">
          <mxGeometry y="70" width="160" height="8" as="geometry" />
        </mxCell>
        <mxCell id="ndru6-qMAjkR5ZIpshtx-4" value="+ exportar_datos" style="text;strokeColor=none;fillColor=none;align=left;verticalAlign=top;spacingLeft=4;spacingRight=4;overflow=hidden;rotatable=0;points=[[0,0.5],[1,0.5]];portConstraint=eastwest;whiteSpace=wrap;html=1;" vertex="1" parent="ndru6-qMAjkR5ZIpshtx-1">
          <mxGeometry y="78" width="160" height="26" as="geometry" />
        </mxCell>
        <mxCell id="ndru6-qMAjkR5ZIpshtx-5" value="Operaciones estadisticas" style="swimlane;fontStyle=1;align=center;verticalAlign=top;childLayout=stackLayout;horizontal=1;startSize=26;horizontalStack=0;resizeParent=1;resizeParentMax=0;resizeLast=0;collapsible=1;marginBottom=0;whiteSpace=wrap;html=1;" vertex="1" parent="1">
          <mxGeometry x="440" y="870" width="160" height="140" as="geometry" />
        </mxCell>
        <mxCell id="ndru6-qMAjkR5ZIpshtx-6" value="- datos" style="text;strokeColor=none;fillColor=none;align=left;verticalAlign=top;spacingLeft=4;spacingRight=4;overflow=hidden;rotatable=0;points=[[0,0.5],[1,0.5]];portConstraint=eastwest;whiteSpace=wrap;html=1;" vertex="1" parent="ndru6-qMAjkR5ZIpshtx-5">
          <mxGeometry y="26" width="160" height="26" as="geometry" />
        </mxCell>
        <mxCell id="ndru6-qMAjkR5ZIpshtx-7" value="" style="line;strokeWidth=1;fillColor=none;align=left;verticalAlign=middle;spacingTop=-1;spacingLeft=3;spacingRight=3;rotatable=0;labelPosition=right;points=[];portConstraint=eastwest;strokeColor=inherit;" vertex="1" parent="ndru6-qMAjkR5ZIpshtx-5">
          <mxGeometry y="52" width="160" height="8" as="geometry" />
        </mxCell>
        <mxCell id="ndru6-qMAjkR5ZIpshtx-8" value="+ tendencia_central&lt;div&gt;+ dispersion&lt;/div&gt;&lt;div&gt;+ correlacion_covarianza&lt;/div&gt;&lt;div&gt;+ analisis_distribucion&lt;/div&gt;" style="text;strokeColor=none;fillColor=none;align=left;verticalAlign=top;spacingLeft=4;spacingRight=4;overflow=hidden;rotatable=0;points=[[0,0.5],[1,0.5]];portConstraint=eastwest;whiteSpace=wrap;html=1;" vertex="1" parent="ndru6-qMAjkR5ZIpshtx-5">
          <mxGeometry y="60" width="160" height="80" as="geometry" />
        </mxCell>
        <mxCell id="ndru6-qMAjkR5ZIpshtx-9" value="AnalisisDataframes" style="swimlane;fontStyle=1;align=center;verticalAlign=top;childLayout=stackLayout;horizontal=1;startSize=26;horizontalStack=0;resizeParent=1;resizeParentMax=0;resizeLast=0;collapsible=1;marginBottom=0;whiteSpace=wrap;html=1;" vertex="1" parent="1">
          <mxGeometry x="190" y="850" width="160" height="150" as="geometry" />
        </mxCell>
        <mxCell id="ndru6-qMAjkR5ZIpshtx-10" value="- datos" style="text;strokeColor=none;fillColor=none;align=left;verticalAlign=top;spacingLeft=4;spacingRight=4;overflow=hidden;rotatable=0;points=[[0,0.5],[1,0.5]];portConstraint=eastwest;whiteSpace=wrap;html=1;" vertex="1" parent="ndru6-qMAjkR5ZIpshtx-9">
          <mxGeometry y="26" width="160" height="26" as="geometry" />
        </mxCell>
        <mxCell id="ndru6-qMAjkR5ZIpshtx-11" value="" style="line;strokeWidth=1;fillColor=none;align=left;verticalAlign=middle;spacingTop=-1;spacingLeft=3;spacingRight=3;rotatable=0;labelPosition=right;points=[];portConstraint=eastwest;strokeColor=inherit;" vertex="1" parent="ndru6-qMAjkR5ZIpshtx-9">
          <mxGeometry y="52" width="160" height="8" as="geometry" />
        </mxCell>
        <mxCell id="ndru6-qMAjkR5ZIpshtx-12" value="+ GrafLinRenAc&lt;div&gt;+ GrafBarCompSatisTasa&lt;/div&gt;&lt;div&gt;+ GrafDispRelVidjuegRend&lt;/div&gt;&lt;div&gt;+ GrafPasterlDistrSatis&lt;/div&gt;" style="text;strokeColor=none;fillColor=none;align=left;verticalAlign=top;spacingLeft=4;spacingRight=4;overflow=hidden;rotatable=0;points=[[0,0.5],[1,0.5]];portConstraint=eastwest;whiteSpace=wrap;html=1;" vertex="1" parent="ndru6-qMAjkR5ZIpshtx-9">
          <mxGeometry y="60" width="160" height="90" as="geometry" />
        </mxCell>
        <mxCell id="ndru6-qMAjkR5ZIpshtx-13" value="AnalisisModelosPredictivos" style="swimlane;fontStyle=1;align=center;verticalAlign=top;childLayout=stackLayout;horizontal=1;startSize=26;horizontalStack=0;resizeParent=1;resizeParentMax=0;resizeLast=0;collapsible=1;marginBottom=0;whiteSpace=wrap;html=1;" vertex="1" parent="1">
          <mxGeometry x="-30" y="830" width="160" height="100" as="geometry" />
        </mxCell>
        <mxCell id="ndru6-qMAjkR5ZIpshtx-14" value="- datos" style="text;strokeColor=none;fillColor=none;align=left;verticalAlign=top;spacingLeft=4;spacingRight=4;overflow=hidden;rotatable=0;points=[[0,0.5],[1,0.5]];portConstraint=eastwest;whiteSpace=wrap;html=1;" vertex="1" parent="ndru6-qMAjkR5ZIpshtx-13">
          <mxGeometry y="26" width="160" height="26" as="geometry" />
        </mxCell>
        <mxCell id="ndru6-qMAjkR5ZIpshtx-15" value="" style="line;strokeWidth=1;fillColor=none;align=left;verticalAlign=middle;spacingTop=-1;spacingLeft=3;spacingRight=3;rotatable=0;labelPosition=right;points=[];portConstraint=eastwest;strokeColor=inherit;" vertex="1" parent="ndru6-qMAjkR5ZIpshtx-13">
          <mxGeometry y="52" width="160" height="8" as="geometry" />
        </mxCell>
        <mxCell id="ndru6-qMAjkR5ZIpshtx-16" value="+ regresion_lineal&lt;div&gt;+ media_movil&lt;/div&gt;" style="text;strokeColor=none;fillColor=none;align=left;verticalAlign=top;spacingLeft=4;spacingRight=4;overflow=hidden;rotatable=0;points=[[0,0.5],[1,0.5]];portConstraint=eastwest;whiteSpace=wrap;html=1;" vertex="1" parent="ndru6-qMAjkR5ZIpshtx-13">
          <mxGeometry y="60" width="160" height="40" as="geometry" />
        </mxCell>
        <mxCell id="ndru6-qMAjkR5ZIpshtx-17" value="MenuManejador" style="swimlane;fontStyle=1;align=center;verticalAlign=top;childLayout=stackLayout;horizontal=1;startSize=26;horizontalStack=0;resizeParent=1;resizeParentMax=0;resizeLast=0;collapsible=1;marginBottom=0;whiteSpace=wrap;html=1;" vertex="1" parent="1">
          <mxGeometry x="190" y="660" width="160" height="60" as="geometry" />
        </mxCell>
        <mxCell id="ndru6-qMAjkR5ZIpshtx-19" value="" style="line;strokeWidth=1;fillColor=none;align=left;verticalAlign=middle;spacingTop=-1;spacingLeft=3;spacingRight=3;rotatable=0;labelPosition=right;points=[];portConstraint=eastwest;strokeColor=inherit;" vertex="1" parent="ndru6-qMAjkR5ZIpshtx-17">
          <mxGeometry y="26" width="160" height="8" as="geometry" />
        </mxCell>
        <mxCell id="ndru6-qMAjkR5ZIpshtx-20" value="+ main" style="text;strokeColor=none;fillColor=none;align=left;verticalAlign=top;spacingLeft=4;spacingRight=4;overflow=hidden;rotatable=0;points=[[0,0.5],[1,0.5]];portConstraint=eastwest;whiteSpace=wrap;html=1;" vertex="1" parent="ndru6-qMAjkR5ZIpshtx-17">
          <mxGeometry y="34" width="160" height="26" as="geometry" />
        </mxCell>
        <mxCell id="ndru6-qMAjkR5ZIpshtx-21" value="1" style="endArrow=open;html=1;endSize=12;startArrow=diamondThin;startSize=14;startFill=1;edgeStyle=orthogonalEdgeStyle;align=left;verticalAlign=bottom;rounded=0;entryX=0.462;entryY=0.017;entryDx=0;entryDy=0;entryPerimeter=0;exitX=0.011;exitY=0.374;exitDx=0;exitDy=0;exitPerimeter=0;" edge="1" parent="1" source="ndru6-qMAjkR5ZIpshtx-17" target="ndru6-qMAjkR5ZIpshtx-13">
          <mxGeometry x="-1" y="3" relative="1" as="geometry">
            <mxPoint x="210" y="660" as="sourcePoint" />
            <mxPoint x="370" y="660" as="targetPoint" />
          </mxGeometry>
        </mxCell>
        <mxCell id="ndru6-qMAjkR5ZIpshtx-32" value="1" style="edgeLabel;html=1;align=center;verticalAlign=middle;resizable=0;points=[];" vertex="1" connectable="0" parent="ndru6-qMAjkR5ZIpshtx-21">
          <mxGeometry x="0.8704" y="4" relative="1" as="geometry">
            <mxPoint as="offset" />
          </mxGeometry>
        </mxCell>
        <mxCell id="ndru6-qMAjkR5ZIpshtx-22" value="1" style="endArrow=open;html=1;endSize=12;startArrow=diamondThin;startSize=14;startFill=1;edgeStyle=orthogonalEdgeStyle;align=left;verticalAlign=bottom;rounded=0;entryX=0.5;entryY=0;entryDx=0;entryDy=0;exitX=0.493;exitY=1.011;exitDx=0;exitDy=0;exitPerimeter=0;" edge="1" parent="1" source="ndru6-qMAjkR5ZIpshtx-20" target="ndru6-qMAjkR5ZIpshtx-9">
          <mxGeometry x="-1" y="3" relative="1" as="geometry">
            <mxPoint x="222" y="762" as="sourcePoint" />
            <mxPoint x="54" y="842" as="targetPoint" />
          </mxGeometry>
        </mxCell>
        <mxCell id="ndru6-qMAjkR5ZIpshtx-33" value="1" style="edgeLabel;html=1;align=center;verticalAlign=middle;resizable=0;points=[];" vertex="1" connectable="0" parent="ndru6-qMAjkR5ZIpshtx-22">
          <mxGeometry x="0.7162" y="3" relative="1" as="geometry">
            <mxPoint as="offset" />
          </mxGeometry>
        </mxCell>
        <mxCell id="ndru6-qMAjkR5ZIpshtx-23" value="1" style="endArrow=open;html=1;endSize=12;startArrow=diamondThin;startSize=14;startFill=1;edgeStyle=orthogonalEdgeStyle;align=left;verticalAlign=bottom;rounded=0;entryX=0.649;entryY=-0.018;entryDx=0;entryDy=0;entryPerimeter=0;exitX=0.979;exitY=0.242;exitDx=0;exitDy=0;exitPerimeter=0;" edge="1" parent="1" source="ndru6-qMAjkR5ZIpshtx-20" target="ndru6-qMAjkR5ZIpshtx-5">
          <mxGeometry x="-1" y="3" relative="1" as="geometry">
            <mxPoint x="232" y="772" as="sourcePoint" />
            <mxPoint x="64" y="852" as="targetPoint" />
          </mxGeometry>
        </mxCell>
        <mxCell id="ndru6-qMAjkR5ZIpshtx-34" value="1" style="edgeLabel;html=1;align=center;verticalAlign=middle;resizable=0;points=[];" vertex="1" connectable="0" parent="ndru6-qMAjkR5ZIpshtx-23">
          <mxGeometry x="0.89" y="2" relative="1" as="geometry">
            <mxPoint as="offset" />
          </mxGeometry>
        </mxCell>
        <mxCell id="ndru6-qMAjkR5ZIpshtx-24" value="1" style="endArrow=open;html=1;endSize=12;startArrow=diamondThin;startSize=14;startFill=1;edgeStyle=orthogonalEdgeStyle;align=left;verticalAlign=bottom;rounded=0;entryX=-0.012;entryY=0.666;entryDx=0;entryDy=0;entryPerimeter=0;exitX=0.435;exitY=0.954;exitDx=0;exitDy=0;exitPerimeter=0;" edge="1" parent="1" source="ndru6-qMAjkR5ZIpshtx-16" target="ndru6-qMAjkR5ZIpshtx-2">
          <mxGeometry x="-1" y="3" relative="1" as="geometry">
            <mxPoint x="41" y="940" as="sourcePoint" />
            <mxPoint x="160" y="1070" as="targetPoint" />
            <Array as="points">
              <mxPoint x="40" y="1145" />
            </Array>
          </mxGeometry>
        </mxCell>
        <mxCell id="ndru6-qMAjkR5ZIpshtx-28" value="1" style="edgeLabel;html=1;align=center;verticalAlign=middle;resizable=0;points=[];" vertex="1" connectable="0" parent="ndru6-qMAjkR5ZIpshtx-24">
          <mxGeometry x="0.8978" y="-1" relative="1" as="geometry">
            <mxPoint as="offset" />
          </mxGeometry>
        </mxCell>
        <mxCell id="ndru6-qMAjkR5ZIpshtx-25" value="1" style="endArrow=open;html=1;endSize=12;startArrow=diamondThin;startSize=14;startFill=1;edgeStyle=orthogonalEdgeStyle;align=left;verticalAlign=bottom;rounded=0;exitX=0.511;exitY=1.011;exitDx=0;exitDy=0;exitPerimeter=0;entryX=0.5;entryY=0;entryDx=0;entryDy=0;" edge="1" parent="1" source="ndru6-qMAjkR5ZIpshtx-12" target="ndru6-qMAjkR5ZIpshtx-1">
          <mxGeometry x="-1" y="3" relative="1" as="geometry">
            <mxPoint x="252" y="792" as="sourcePoint" />
            <mxPoint x="260" y="1080" as="targetPoint" />
          </mxGeometry>
        </mxCell>
        <mxCell id="ndru6-qMAjkR5ZIpshtx-27" value="1&lt;div&gt;&lt;br&gt;&lt;/div&gt;" style="edgeLabel;html=1;align=center;verticalAlign=middle;resizable=0;points=[];" vertex="1" connectable="0" parent="ndru6-qMAjkR5ZIpshtx-25">
          <mxGeometry x="0.7013" y="-2" relative="1" as="geometry">
            <mxPoint as="offset" />
          </mxGeometry>
        </mxCell>
        <mxCell id="ndru6-qMAjkR5ZIpshtx-26" value="1" style="endArrow=open;html=1;endSize=12;startArrow=diamondThin;startSize=14;startFill=1;edgeStyle=orthogonalEdgeStyle;align=left;verticalAlign=bottom;rounded=0;exitX=0.555;exitY=0.995;exitDx=0;exitDy=0;exitPerimeter=0;entryX=1.006;entryY=0.828;entryDx=0;entryDy=0;entryPerimeter=0;" edge="1" parent="1" source="ndru6-qMAjkR5ZIpshtx-8" target="ndru6-qMAjkR5ZIpshtx-2">
          <mxGeometry x="-1" y="3" relative="1" as="geometry">
            <mxPoint x="530" y="1020" as="sourcePoint" />
            <mxPoint x="390" y="1080" as="targetPoint" />
          </mxGeometry>
        </mxCell>
        <mxCell id="ndru6-qMAjkR5ZIpshtx-30" value="1" style="edgeLabel;html=1;align=center;verticalAlign=middle;resizable=0;points=[];" vertex="1" connectable="0" parent="ndru6-qMAjkR5ZIpshtx-26">
          <mxGeometry x="0.8527" y="-3" relative="1" as="geometry">
            <mxPoint as="offset" />
          </mxGeometry>
        </mxCell>
      </root>
    </mxGraphModel>
  </diagram>
</mxfile>
